<svg xmlns="http://www.w3.org/2000/svg" xmlns:xlink="http://www.w3.org/1999/xlink" width="70" height="70" viewBox="0 0 70 70">
  <defs>
    <clipPath id="clip-path">
      <rect id="Ret칙ngulo_20" data-name="Ret칙ngulo 20" width="70" height="70" transform="translate(1503 4129)" fill="#fff" stroke="#707070" stroke-width="1"/>
    </clipPath>
  </defs>
  <g id="Grupo_de_m치scara_7" data-name="Grupo de m치scara 7" transform="translate(-1503 -4129)" clip-path="url(#clip-path)">
    <path id="instagram-brands" d="M34.991,24.149A17.943,17.943,0,1,0,52.934,42.092,17.915,17.915,0,0,0,34.991,24.149Zm0,29.608A11.665,11.665,0,1,1,46.656,42.092,11.687,11.687,0,0,1,34.991,53.757ZM57.853,23.415a4.185,4.185,0,1,1-4.185-4.185A4.175,4.175,0,0,1,57.853,23.415Zm11.884,4.248C69.472,22.056,68.191,17.09,64.084,13c-4.091-4.091-9.057-5.372-14.664-5.653-5.778-.328-23.1-.328-28.875,0-5.591.265-10.557,1.546-14.664,5.637S.51,22.041.229,27.647c-.328,5.778-.328,23.1,0,28.875.265,5.606,1.546,10.572,5.653,14.664s9.057,5.372,14.664,5.653c5.778.328,23.1.328,28.875,0,5.606-.265,10.572-1.546,14.664-5.653,4.091-4.091,5.372-9.057,5.653-14.664.328-5.778.328-23.081,0-28.859ZM62.273,62.721a11.81,11.81,0,0,1-6.653,6.653c-4.607,1.827-15.538,1.405-20.629,1.405s-16.038.406-20.629-1.405a11.81,11.81,0,0,1-6.653-6.653C5.882,58.114,6.3,47.183,6.3,42.092S5.9,26.054,7.709,21.463a11.81,11.81,0,0,1,6.653-6.653C18.969,12.983,29.9,13.4,34.991,13.4S51.029,13,55.62,14.81a11.81,11.81,0,0,1,6.653,6.653C64.1,26.07,63.678,37,63.678,42.092S64.1,58.13,62.273,62.721Z" transform="translate(1503.017 4121.908)" fill="#fff"/>
  </g>
</svg>
