<svg xmlns="http://www.w3.org/2000/svg" xmlns:xlink="http://www.w3.org/1999/xlink" width="70" height="70" viewBox="0 0 70 70">
  <defs>
    <clipPath id="clip-path">
      <rect id="Ret칙ngulo_22" data-name="Ret칙ngulo 22" width="70" height="70" transform="translate(1263 4129)" fill="#fff" stroke="#707070" stroke-width="1"/>
    </clipPath>
  </defs>
  <g id="Grupo_de_m치scara_5" data-name="Grupo de m치scara 5" transform="translate(-1263 -4129)" clip-path="url(#clip-path)">
    <path id="twitter-square-brands" d="M62.5,7.143H7.5a7.5,7.5,0,0,0-7.5,7.5v55a7.5,7.5,0,0,0,7.5,7.5h55a7.5,7.5,0,0,0,7.5-7.5v-55A7.5,7.5,0,0,0,62.5,7.143ZM54.859,31.955c.031.438.031.891.031,1.328,0,13.547-10.312,29.156-29.156,29.156A29.022,29.022,0,0,1,10,57.846a21.588,21.588,0,0,0,2.469.125A20.546,20.546,0,0,0,25.188,53.6a10.261,10.261,0,0,1-9.578-7.109,11.044,11.044,0,0,0,4.625-.187,10.249,10.249,0,0,1-8.2-10.062v-.125a10.241,10.241,0,0,0,4.625,1.3,10.226,10.226,0,0,1-4.562-8.531,10.12,10.12,0,0,1,1.391-5.172A29.1,29.1,0,0,0,34.609,34.424a10.27,10.27,0,0,1,17.484-9.359,20.081,20.081,0,0,0,6.5-2.469,10.221,10.221,0,0,1-4.5,5.641A20.393,20.393,0,0,0,60,26.643,21.57,21.57,0,0,1,54.859,31.955Z" transform="translate(1263 4121.857)" fill="#fff"/>
  </g>
</svg>
