<svg xmlns="http://www.w3.org/2000/svg" width="208.416" height="107" viewBox="0 0 208.416 107">
  <g id="Grupo_2" data-name="Grupo 2" transform="translate(-71 -22)">
    <g id="Grupo_1" data-name="Grupo 1">
      <g id="Retângulo_2" data-name="Retângulo 2" transform="translate(92 22)" fill="#fff" stroke="#fff" stroke-width="1">
        <rect width="13" height="107" rx="6.5" stroke="none"/>
        <rect x="0.5" y="0.5" width="12" height="106" rx="6" fill="none"/>
      </g>
      <g id="Retângulo_4" data-name="Retângulo 4" transform="translate(71 48)" fill="#fff" stroke="#fff" stroke-width="1">
        <rect width="13" height="55" rx="6.5" stroke="none"/>
        <rect x="0.5" y="0.5" width="12" height="54" rx="6" fill="none"/>
      </g>
      <g id="Retângulo_5" data-name="Retângulo 5" transform="translate(114 48)" fill="#fff" stroke="#fff" stroke-width="1">
        <rect width="13" height="55" rx="6.5" stroke="none"/>
        <rect x="0.5" y="0.5" width="12" height="54" rx="6" fill="none"/>
      </g>
      <g id="Retângulo_6" data-name="Retângulo 6" transform="translate(159 48)" fill="#fff" stroke="#fff" stroke-width="1">
        <rect width="13" height="55" rx="6.5" stroke="none"/>
        <rect x="0.5" y="0.5" width="12" height="54" rx="6" fill="none"/>
      </g>
      <g id="Retângulo_3" data-name="Retângulo 3" transform="translate(138 22)" fill="#fff" stroke="#fff" stroke-width="1">
        <rect width="13" height="107" rx="6.5" stroke="none"/>
        <rect x="0.5" y="0.5" width="12" height="106" rx="6" fill="none"/>
      </g>
    </g>
    <path id="Caminho_1" data-name="Caminho 1" d="M11.455,8.225,20.6,28H15.82l-1.494-3.662H6.563L5.068,28H.293L9.434,8.225Zm-1,6.65L8,20.881H12.92Zm21.68-6.943a8.976,8.976,0,0,1,3.193.513,7.573,7.573,0,0,1,2.344,1.392v4.1q-.7-.527-1.465-1.025a7.523,7.523,0,0,0-1.714-.82,7,7,0,0,0-2.241-.322,6.152,6.152,0,0,0-3.193.85A6.405,6.405,0,0,0,26.777,14.9a6.319,6.319,0,0,0-.85,3.281,6.341,6.341,0,0,0,.85,3.267,6.239,6.239,0,0,0,5.479,3.12,8.016,8.016,0,0,0,3.3-.6,10.974,10.974,0,0,0,2.417-1.479v3.955a7.38,7.38,0,0,1-2.49,1.45,9.74,9.74,0,0,1-3.34.542,10.664,10.664,0,0,1-3.984-.747,10.3,10.3,0,0,1-3.311-2.109,9.855,9.855,0,0,1-2.256-3.237,10.27,10.27,0,0,1-.82-4.16,10.27,10.27,0,0,1,.82-4.16,9.855,9.855,0,0,1,2.256-3.237,10.3,10.3,0,0,1,3.311-2.109A10.664,10.664,0,0,1,32.139,7.932Zm29.531.293V28H57.6V16.047l-5.039,5.508H51.387l-5.1-5.508V28H42.217V8.225h1.377l8.379,8.73,8.32-8.73Zm18.6,8.115V19.65H71.6V24.4h9.814V28H67.529V8.371H81.416v3.516H71.6V16.34Z" transform="translate(198 61)" fill="#fff"/>
  </g>
</svg>
